<?xml version="1.0" encoding="utf-8"?>
<!-- Generator: Adobe Illustrator 16.0.0, SVG Export Plug-In . SVG Version: 6.00 Build 0)  -->
<!DOCTYPE svg PUBLIC "-//W3C//DTD SVG 1.1//EN" "http://www.w3.org/Graphics/SVG/1.1/DTD/svg11.dtd">
<svg version="1.1" id="Layer_1" xmlns="http://www.w3.org/2000/svg" xmlns:xlink="http://www.w3.org/1999/xlink" x="0px" y="0px"
	 width="172.322px" height="45.931px" viewBox="0 0 172.322 45.931" enable-background="new 0 0 172.322 45.931"
	 xml:space="preserve">
<g>
	<g>
		<path fill="#010101" d="M12.207,45.156L0,13.123h9.142l6.187,18.252c0.689,2.311,1.119,4.498,1.29,6.561h0.171
			c0.098-1.834,0.526-4.021,1.29-6.561l6.162-18.252h9.139L21.174,45.156H12.207z"/>
		<path fill="#010101" d="M59.476,35.645c0,3.285-1.143,5.787-3.425,7.504c-2.282,1.721-5.698,2.58-10.242,2.58
			c-2.33,0-4.318-0.156-5.96-0.473c-1.643-0.314-3.182-0.775-4.612-1.389v-7.221c1.621,0.764,3.454,1.404,5.486,1.92
			c2.036,0.516,3.824,0.773,5.372,0.773c3.17,0,4.758-0.916,4.758-2.752c0-0.686-0.212-1.244-0.632-1.674
			c-0.421-0.43-1.144-0.918-2.178-1.463c-1.03-0.543-2.407-1.178-4.126-1.906c-2.464-1.03-4.273-1.985-5.429-2.863
			c-1.155-0.879-1.996-1.886-2.523-3.023c-0.525-1.136-0.785-2.536-0.785-4.198c0-2.847,1.102-5.047,3.308-6.605
			c2.207-1.557,5.334-2.335,9.383-2.335c3.859,0,7.613,0.841,11.26,2.523l-2.634,6.303c-1.605-0.688-3.105-1.251-4.498-1.69
			c-1.396-0.439-2.819-0.659-4.271-0.659c-2.578,0-3.867,0.698-3.867,2.092c0,0.784,0.415,1.462,1.247,2.034
			c0.828,0.574,2.648,1.423,5.456,2.55c2.502,1.012,4.337,1.958,5.501,2.837c1.165,0.879,2.024,1.891,2.58,3.035
			C59.197,32.695,59.476,34.059,59.476,35.645z"/>
		<path fill="#010101" d="M80.091,45.729c-5.153,0-9.186-1.422-12.089-4.268c-2.903-2.848-4.354-6.877-4.354-12.091
			c0-5.368,1.341-9.518,4.025-12.45c2.684-2.932,6.394-4.399,11.133-4.399c4.527,0,8.05,1.29,10.57,3.869
			c2.523,2.58,3.785,6.143,3.785,10.687v4.24H72.5c0.095,2.484,0.831,4.424,2.207,5.816c1.377,1.396,3.305,2.094,5.787,2.094
			c1.929,0,3.754-0.201,5.475-0.604c1.717-0.4,3.512-1.041,5.386-1.918v6.76c-1.529,0.766-3.162,1.332-4.897,1.705
			C84.716,45.543,82.596,45.729,80.091,45.729z M78.863,18.739c-1.854,0-3.305,0.588-4.357,1.763
			c-1.049,1.174-1.651,2.84-1.804,4.999h12.263c-0.04-2.158-0.603-3.824-1.692-4.999C82.186,19.327,80.715,18.739,78.863,18.739z"/>
		<path fill="#010101" d="M98.288,41.059c0-1.604,0.43-2.818,1.289-3.639s2.109-1.232,3.752-1.232c1.586,0,2.812,0.422,3.682,1.262
			c0.871,0.84,1.305,2.043,1.305,3.609c0,1.508-0.439,2.699-1.316,3.566c-0.881,0.869-2.102,1.305-3.67,1.305
			c-1.604,0-2.846-0.424-3.723-1.273C98.728,43.805,98.288,42.605,98.288,41.059z"/>
		<path fill="#010101" d="M137.878,13.123v6.561h-10.486v25.473h-8.737V19.684h-10.517v-6.561H137.878z"/>
		<path fill="#010101" d="M172.323,29.083c0,5.213-1.377,9.292-4.129,12.233c-2.75,2.941-6.58,4.412-11.49,4.412
			c-3.074,0-5.787-0.672-8.136-2.018c-2.349-1.35-4.153-3.283-5.416-5.805c-1.26-2.521-1.89-5.463-1.89-8.823
			c0-5.235,1.364-9.304,4.096-12.207c2.732-2.903,6.572-4.356,11.52-4.356c3.074,0,5.787,0.669,8.139,2.006
			c2.35,1.338,4.153,3.257,5.416,5.759C171.692,22.789,172.323,25.721,172.323,29.083z M150.173,29.083
			c0,3.168,0.52,5.567,1.561,7.192c1.042,1.623,2.738,2.434,5.088,2.434c2.33,0,4.004-0.807,5.027-2.422
			c1.021-1.611,1.531-4.014,1.531-7.204c0-3.171-0.513-5.55-1.545-7.134c-1.031-1.586-2.723-2.38-5.07-2.38
			c-2.334,0-4.015,0.789-5.043,2.365C150.689,23.51,150.173,25.893,150.173,29.083z"/>
	</g>
	<g>
		<path fill="#CB2026" d="M67.92,4.871c0-1.605,0.429-2.818,1.289-3.638C70.066,0.41,71.32,0,72.959,0
			c1.589,0,2.814,0.42,3.685,1.26c0.868,0.842,1.301,2.046,1.301,3.611c0,1.509-0.437,2.698-1.315,3.567
			c-0.878,0.868-2.1,1.304-3.67,1.304c-1.602,0-2.843-0.426-3.723-1.275C68.36,7.617,67.92,6.419,67.92,4.871z"/>
	</g>
	<g>
		<path fill="#CB2026" d="M79.687,4.871c0-1.605,0.429-2.818,1.288-3.638C81.833,0.41,83.086,0,84.728,0
			c1.587,0,2.812,0.42,3.684,1.26c0.868,0.842,1.303,2.046,1.303,3.611c0,1.509-0.439,2.698-1.317,3.567
			c-0.878,0.868-2.101,1.304-3.669,1.304c-1.604,0-2.844-0.426-3.724-1.275C80.126,7.617,79.687,6.419,79.687,4.871z"/>
	</g>
</g>
</svg>
